{
  "accessors": [
    {
      "bufferView": 2,
      "componentType": 5126,
      "count": 65532,
      "max": [
        0.8741430044174194,
        6.411632061004639,
        2.097219944000244
      ],
      "min": [
        -0.8001490235328674,
        2.377718925476074,
        -1.1244059801101685
      ],
      "type": "VEC3"
    },
    {
      "bufferView": 2,
      "byteOffset": 786384,
      "componentType": 5126,
      "count": 65532,
      "max": [
        0.9999984502792358,
        1.0,
        0.9999629855155945
      ],
      "min": [
        -0.999999463558197,
        -0.9999978542327881,
        -0.9999827742576599
      ],
      "type": "VEC3"
    },
    {
      "bufferView": 1,
      "componentType": 5126,
      "count": 65532,
      "max": [
        1.0,
        0.9699429869651794
      ],
      "min": [
        0.033018000423908234,
        0.005907000042498112
      ],
      "type": "VEC2"
    },
    {
      "bufferView": 0,
      "componentType": 5125,
      "count": 341868,
      "type": "SCALAR"
    },
    {
      "bufferView": 2,
      "byteOffset": 1572768,
      "componentType": 5126,
      "count": 65532,
      "max": [
        0.8741430044174194,
        6.411632061004639,
        2.0967600345611572
      ],
      "min": [
        -0.6881319880485535,
        3.2120399475097656,
        -1.3539930582046509
      ],
      "type": "VEC3"
    },
    {
      "bufferView": 2,
      "byteOffset": 2359152,
      "componentType": 5126,
      "count": 65532,
      "max": [
        0.9999984502792358,
        1.0,
        0.9999909996986389
      ],
      "min": [
        -0.9999989867210388,
        -0.9999889731407166,
        -0.9999839067459106
      ],
      "type": "VEC3"
    },
    {
      "bufferView": 1,
      "byteOffset": 524256,
      "componentType": 5126,
      "count": 65532,
      "max": [
        1.0,
        0.970097005367279
      ],
      "min": [
        0.004052999895066023,
        0.0
      ],
      "type": "VEC2"
    },
    {
      "bufferView": 0,
      "byteOffset": 1367472,
      "componentType": 5125,
      "count": 342282,
      "type": "SCALAR"
    },
    {
      "bufferView": 2,
      "byteOffset": 3145536,
      "componentType": 5126,
      "count": 42240,
      "max": [
        0.8617069721221924,
        6.411632061004639,
        1.7160459756851196
      ],
      "min": [
        -0.799930989742279,
        2.377758026123047,
        -1.353214979171753
      ],
      "type": "VEC3"
    },
    {
      "bufferView": 2,
      "byteOffset": 3652416,
      "componentType": 5126,
      "count": 42240,
      "max": [
        0.9999970197677612,
        1.0,
        0.9694625735282898
      ],
      "min": [
        -0.9999847412109375,
        -0.9999948740005493,
        -0.9999972581863403
      ],
      "type": "VEC3"
    },
    {
      "bufferView": 1,
      "byteOffset": 1048512,
      "componentType": 5126,
      "count": 42240,
      "max": [
        0.9728590250015259,
        0.9636989831924438
      ],
      "min": [
        0.0002519999979995191,
        0.003370000049471855
      ],
      "type": "VEC2"
    },
    {
      "bufferView": 0,
      "byteOffset": 2736600,
      "componentType": 5125,
      "count": 199368,
      "type": "SCALAR"
    }
  ],
  "asset": {
    "extras": {
      "author": "danderson4 (https://sketchfab.com/danderson4)",
      "license": "CC-BY-NC-4.0 (http://creativecommons.org/licenses/by-nc/4.0/)",
      "source": "https://sketchfab.com/3d-models/granite-statue-of-horus-3944438111b24e7e92c1ae328a37b05e",
      "title": "Granite Statue of Horus"
    },
    "generator": "Sketchfab-12.67.0",
    "version": "2.0"
  },
  "bufferViews": [
    {
      "buffer": 0,
      "byteLength": 3534072,
      "name": "floatBufferViews",
      "target": 34963
    },
    {
      "buffer": 0,
      "byteLength": 1386432,
      "byteOffset": 3534072,
      "byteStride": 8,
      "name": "floatBufferViews",
      "target": 34962
    },
    {
      "buffer": 0,
      "byteLength": 4159296,
      "byteOffset": 4920504,
      "byteStride": 12,
      "name": "floatBufferViews",
      "target": 34962
    }
  ],
  "buffers": [
    {
      "byteLength": 9079800,
      "uri": "scene.bin"
    }
  ],
  "images": [
    {
      "uri": "textures/Modelout_baseColor.jpeg"
    }
  ],
  "materials": [
    {
      "doubleSided": true,
      "name": "Modelout",
      "pbrMetallicRoughness": {
        "baseColorTexture": {
          "index": 0
        },
        "metallicFactor": 0.0,
        "roughnessFactor": 0.6
      }
    }
  ],
  "meshes": [
    {
      "name": "Object_0",
      "primitives": [
        {
          "attributes": {
            "NORMAL": 1,
            "POSITION": 0,
            "TEXCOORD_0": 2
          },
          "indices": 3,
          "material": 0,
          "mode": 4
        }
      ]
    },
    {
      "name": "Object_1",
      "primitives": [
        {
          "attributes": {
            "NORMAL": 5,
            "POSITION": 4,
            "TEXCOORD_0": 6
          },
          "indices": 7,
          "material": 0,
          "mode": 4
        }
      ]
    },
    {
      "name": "Object_2",
      "primitives": [
        {
          "attributes": {
            "NORMAL": 9,
            "POSITION": 8,
            "TEXCOORD_0": 10
          },
          "indices": 11,
          "material": 0,
          "mode": 4
        }
      ]
    }
  ],
  "nodes": [
    {
      "children": [
        1
      ],
      "matrix": [
        1.0,
        0.0,
        0.0,
        0.0,
        0.0,
        -1.0,
        -4.440892098500626e-16,
        0.0,
        0.0,
        4.440892098500626e-16,
        -1.0,
        0.0,
        0.0,
        4.766292572021485,
        -4.023058891296386,
        1.0
      ],
      "name": "Sketchfab_model"
    },
    {
      "children": [
        2,
        3,
        4
      ],
      "name": "Modelout.obj.cleaner.materialmerger.gles"
    },
    {
      "mesh": 0,
      "name": "Object_2"
    },
    {
      "mesh": 1,
      "name": "Object_3"
    },
    {
      "mesh": 2,
      "name": "Object_4"
    }
  ],
  "samplers": [
    {
      "magFilter": 9729,
      "minFilter": 9987,
      "wrapS": 10497,
      "wrapT": 10497
    }
  ],
  "scene": 0,
  "scenes": [
    {
      "name": "Sketchfab_Scene",
      "nodes": [
        0
      ]
    }
  ],
  "textures": [
    {
      "sampler": 0,
      "source": 0
    }
  ]
}
